<?xml version="1.0" standalone="no"?>
<!DOCTYPE svg PUBLIC "-//W3C//DTD SVG 20010904//EN"
 "http://www.w3.org/TR/2001/REC-SVG-20010904/DTD/svg10.dtd">
<svg version="1.0" xmlns="http://www.w3.org/2000/svg"
 width="60.000000pt" height="61.000000pt" viewBox="0 0 60.000000 61.000000"
 preserveAspectRatio="xMidYMid meet">

<g transform="translate(0.000000,61.000000) scale(0.100000,-0.100000)"
fill="#000000" stroke="none">
<path d="M77 134 c-4 -4 -7 -21 -7 -38 0 -21 -3 -27 -9 -17 -5 7 -6 22 -4 32
4 14 0 19 -16 19 -18 0 -21 -6 -21 -40 0 -43 4 -45 44 -31 17 7 26 7 30 -2 2
-7 4 2 5 18 0 37 -12 69 -22 59z m-27 -53 c0 -6 -4 -13 -10 -16 -5 -3 -10 1
-10 9 0 9 5 16 10 16 6 0 10 -4 10 -9z"/>
<path d="M190 97 c0 -26 3 -47 8 -47 9 0 8 77 -1 86 -4 4 -7 -14 -7 -39z"/>
<path d="M230 130 c-11 -7 -10 -13 5 -36 15 -24 15 -26 1 -21 -18 7 -22 -8 -5
-19 23 -14 32 14 14 42 -15 24 -16 26 -1 21 9 -4 16 -2 16 3 0 14 -15 19 -30
10z"/>
<path d="M342 118 c-8 -18 -11 -19 -11 -5 -1 9 -5 17 -11 17 -5 0 -10 -19 -9
-42 1 -37 2 -39 9 -18 4 14 8 19 9 12 1 -7 5 -11 10 -8 5 4 12 0 14 -6 3 -7 6
6 6 30 1 48 -2 51 -17 20z"/>
<path d="M387 133 c-2 -5 -8 -26 -11 -47 -7 -35 -6 -38 7 -27 12 9 16 9 20 -1
3 -7 6 1 6 17 1 23 -2 27 -9 15 -7 -11 -8 -6 -4 18 6 29 1 42 -9 25z"/>
<path d="M426 133 c-8 -8 -8 -68 0 -76 3 -3 12 -3 20 0 16 6 19 33 3 33 -5 0
-8 -4 -4 -9 3 -5 1 -12 -5 -16 -6 -4 -10 6 -10 24 0 16 5 31 12 33 8 3 9 6 1
11 -5 4 -13 4 -17 0z"/>
<path d="M473 95 c0 -27 2 -38 4 -22 2 15 2 37 0 50 -2 12 -4 0 -4 -28z"/>
<path d="M519 118 c-1 -17 -2 -19 -6 -5 -8 31 -23 18 -22 -20 1 -21 4 -29 6
-19 5 18 6 18 19 -5 13 -23 13 -22 14 24 0 47 -9 67 -11 25z"/>
<path d="M551 131 c-19 -12 -10 -75 12 -79 12 -3 17 3 16 20 0 13 -3 17 -6 11
-8 -22 -23 -14 -23 13 0 19 4 25 15 20 8 -3 15 -1 15 4 0 14 -15 19 -29 11z"/>
<path d="M113 90 c0 -25 2 -35 4 -22 2 12 2 32 0 45 -2 12 -4 2 -4 -23z"/>
<path d="M142 95 c0 -22 2 -34 5 -26 5 11 7 11 14 0 6 -9 9 0 9 26 0 26 -3 35
-9 26 -7 -11 -9 -11 -14 0 -3 8 -5 -4 -5 -26z"/>
<path d="M293 90 c0 -25 2 -35 4 -22 2 12 2 32 0 45 -2 12 -4 2 -4 -23z"/>
</g>
</svg>
